<svg xmlns="http://www.w3.org/2000/svg" width="20.06" height="20.06" viewBox="0 0 20.06 20.06">
  <g id="Icn_-_Instagram" data-name="Icn - Instagram" transform="translate(-4.079 -4.079)">
    <path id="Path_5" data-name="Path 5" d="M14.109,5.886c2.678,0,3,.01,4.053.058a5.552,5.552,0,0,1,1.862.345,3.322,3.322,0,0,1,1.9,1.9,5.551,5.551,0,0,1,.345,1.862c.048,1.058.058,1.375.058,4.053s-.01,3-.058,4.053a5.552,5.552,0,0,1-.345,1.862,3.322,3.322,0,0,1-1.9,1.9,5.552,5.552,0,0,1-1.862.345c-1.057.048-1.375.058-4.053.058s-3-.01-4.053-.058a5.551,5.551,0,0,1-1.862-.345,3.322,3.322,0,0,1-1.9-1.9,5.552,5.552,0,0,1-.345-1.862c-.048-1.058-.058-1.375-.058-4.053s.01-3,.058-4.053A5.551,5.551,0,0,1,6.29,8.194a3.322,3.322,0,0,1,1.9-1.9,5.551,5.551,0,0,1,1.862-.345c1.058-.048,1.375-.058,4.053-.058m0-1.807c-2.724,0-3.066.012-4.135.06a7.362,7.362,0,0,0-2.435.466A5.129,5.129,0,0,0,4.606,7.539a7.362,7.362,0,0,0-.466,2.435c-.049,1.07-.06,1.411-.06,4.135s.012,3.066.06,4.135a7.362,7.362,0,0,0,.466,2.435,5.129,5.129,0,0,0,2.933,2.933,7.362,7.362,0,0,0,2.435.466c1.07.049,1.411.06,4.135.06s3.066-.012,4.135-.06a7.362,7.362,0,0,0,2.435-.466,5.129,5.129,0,0,0,2.933-2.933,7.362,7.362,0,0,0,.466-2.435c.049-1.07.06-1.411.06-4.135s-.012-3.066-.06-4.135a7.362,7.362,0,0,0-.466-2.435,5.129,5.129,0,0,0-2.933-2.933,7.362,7.362,0,0,0-2.435-.466c-1.07-.049-1.411-.06-4.135-.06Z" fill="#fff"/>
    <path id="Path_6" data-name="Path 6" d="M131.786,126.635a5.151,5.151,0,1,0,5.151,5.151A5.151,5.151,0,0,0,131.786,126.635Zm0,8.494a3.343,3.343,0,1,1,3.343-3.343A3.343,3.343,0,0,1,131.786,135.129Z" transform="translate(-117.676 -117.676)" fill="#fff"/>
    <circle id="Ellipse_1" data-name="Ellipse 1" cx="1.204" cy="1.204" r="1.204" transform="translate(18.26 7.551)" fill="#fff"/>
  </g>
</svg>
