<svg xmlns="http://www.w3.org/2000/svg" width="15.888" height="17.199" viewBox="0 0 15.888 17.199">
  <path id="np_phone_52971_000000" d="M24.387,18.447l-.1-.191c-.267-.631-3.558-1.588-3.825-1.606l-.211.019c-.4.076-.841.44-1.7,1.186a.519.519,0,0,1-.612.076,15.017,15.017,0,0,1-3.194-2.658A12.01,12.01,0,0,1,12.683,12a.573.573,0,0,1,.153-.593c.976-.88,1.4-1.3,1.434-1.759.019-.267-.554-3.653-1.148-3.978l-.172-.115a2.168,2.168,0,0,0-1.588-.478,1.756,1.756,0,0,0-.44.172A5.747,5.747,0,0,0,8.972,7.182c-.287.593-.421,5.967,3.6,10.5,3.978,4.494,8.893,4.686,9.62,4.533h.019l.058-.019a5.661,5.661,0,0,0,2.161-1.7,1.838,1.838,0,0,0-.039-2.046Z" transform="translate(-8.847 -5.049)" fill="#fff"/>
</svg>
