<svg xmlns="http://www.w3.org/2000/svg" width="20.141" height="20.141" viewBox="0 0 20.141 20.141">
  <g id="Icn_-_Facebook" data-name="Icn - Facebook" transform="translate(0 0)">
    <path id="Path_7" data-name="Path 7" d="M19.029,0H1.111A1.111,1.111,0,0,0,0,1.112V19.03a1.111,1.111,0,0,0,1.112,1.111h9.647V12.352H8.143V9.3h2.616V7.06a3.662,3.662,0,0,1,3.909-4.018,21.538,21.538,0,0,1,2.345.12V5.881h-1.6c-1.263,0-1.507.6-1.507,1.481V9.3h3.019l-.393,3.049H13.906v7.789h5.123a1.112,1.112,0,0,0,1.112-1.112V1.111A1.111,1.111,0,0,0,19.029,0Z" transform="translate(0 0)" fill="#fff"/>
    <path id="f" d="M419.763,171.749V163.96h2.626l.393-3.049h-3.019V158.97c0-.881.245-1.481,1.507-1.481h1.6V154.77a21.537,21.537,0,0,0-2.345-.12,3.662,3.662,0,0,0-3.909,4.018v2.244H414v3.049h2.616v7.789Z" transform="translate(-405.857 -151.608)" fill="none"/>
  </g>
</svg>
