<svg xmlns="http://www.w3.org/2000/svg" width="74.422" height="24.996" viewBox="0 0 74.422 24.996">
  <g id="LOGO" transform="translate(-75.967 -55.054)">
    <path id="Path_1" data-name="Path 1" d="M90.765,70.639a6.063,6.063,0,0,1-1.157,4.151,4.9,4.9,0,0,1-3.675,1.265,4.739,4.739,0,0,1-3.686-1.265,6.522,6.522,0,0,1-1.084-4.151V55.483h-2.6a2.434,2.434,0,0,0-1.842.81,2.652,2.652,0,0,0-.753,1.868V71.2q0,4.516,2.6,6.838c1.589,1.547,4.046,2.33,7.371,2.33s5.768-.783,7.359-2.33q2.6-2.323,2.6-6.838V55.483H90.765Z" transform="translate(0 -0.315)" fill="#f0082b"/>
    <path id="Path_2" data-name="Path 2" d="M175.743,72.5l-9.432-17.111h-2.56a2.521,2.521,0,0,0-1.722.831,2.594,2.594,0,0,0-.71,1.839V80.293h4.721V63.182l9.5,17.112h4.921V55.385h-4.723Z" transform="translate(-62.75 -0.243)" fill="#f0082b"/>
    <path id="Path_3" data-name="Path 3" d="M246.1,55.885a2.648,2.648,0,0,0-.671,1.834V80.1h4.529V55.122h-2.229a2.066,2.066,0,0,0-1.628.763" transform="translate(-124.587 -0.05)" fill="#f0082b"/>
    <path id="Path_4" data-name="Path 4" d="M294.925,55.054h-6.408L278.862,65.3V55.054h-2.52a2.46,2.46,0,0,0-1.842.763,2.518,2.518,0,0,0-.76,1.848V80.05h5.122V71.257a1.8,1.8,0,0,1,1.406-1.784c.933-.316,1.949.253,3.061,1.713l6.265,8.865h6.194l-10.805-14.9Z" transform="translate(-145.4)" fill="#f0082b"/>
  </g>
</svg>
