<svg xmlns="http://www.w3.org/2000/svg" width="17.862" height="11.908" viewBox="0 0 17.862 11.908">
  <path id="np_mail_1559570_000000" d="M12.374,24a1.37,1.37,0,0,0-.515.1l7.664,6.827a.572.572,0,0,0,.83,0L28,24.1a1.37,1.37,0,0,0-.515-.1Zm-1.36,1.181a1.374,1.374,0,0,0-.014.193v9.16a1.372,1.372,0,0,0,.107.53L16.4,29.983Zm17.834,0-5.367,4.795,5.281,5.081a1.386,1.386,0,0,0,.1-.522v-9.16a1.374,1.374,0,0,0-.014-.193ZM22.45,30.9l-1.181,1.059a2.015,2.015,0,0,1-2.662,0l-1.181-1.052-5.21,5a1.522,1.522,0,0,0,.157.007H27.488c.05,0,.1,0,.15-.007Z" transform="translate(-11 -24)" fill="#fff"/>
</svg>
